# xmcd
#
# Track frame offsets:
# 180
# 18966
# 39111
# 55207
# 77517
# 91836
# 105445
# 131994
# 151330
# 163730
# 187448
# 204192
#
# Disc length: 3028 seconds
#
# Revision: 0
# Processed by: cddbd v1.5.1PL2 Copyright (c) Steve Scherf et al.
# Submitted via: Audion 3.0.2 (http://www.panic.com/audion/)
#
DISCID=900bd20c
DTITLE=Willy Deville - Collection legende
DYEAR=1900
DGENRE=
TTITLE0=Hey Joe
TTITLE1=Lilly's Daddy's Cadillac (Live)
TTITLE2=All In Thez Name Of Love
TTITLE3=Bamboo Road
TTITLE4=This Must Be TheNight (Live)
TTITLE5=Savoit Faire (Live)
TTITLE6=Cadillac Walk (Live)
TTITLE7=Stand By Me !Kive)
TTITLE8=Ruler Of My Heart
TTITLE9=Iko Iko
TTITLE10=Demasiado Corazon (Lve)
TTITLE11=Hey Joe (Live
EXTD=
EXTT0=
EXTT1=
EXTT2=
EXTT3=
EXTT4=
EXTT5=
EXTT6=
EXTT7=
EXTT8=
EXTT9=
EXTT10=
EXTT11=
PLAYORDER=
